<svg xmlns="http://www.w3.org/2000/svg" viewBox="0 0 193 193" role="img" aria-label="Coyote de Coyoacán">
  <path fill="#1565C0" d="M83,19H90V20H83Z M75,20H99V21H75Z M71,21H103V22H71Z M68,22H69V23H68Z M70,22H103V23H70Z M105,22H106V23H105Z M65,23H109V24H65Z M62,24H111V25H62Z M60,25H113V26H60Z M58,26H59V27H58Z M60,26H113V27H60Z M114,26H115V27H114Z M56,27H115V28H56Z M116,27H117V28H116Z M55,28H119V29H55Z M53,29H120V30H53Z M51,30H122V31H51Z M50,31H123V32H50Z M49,32H124V33H49Z M48,33H125V34H48Z M46,34H127V35H46Z M45,35H128V36H45Z M44,36H129V37H44Z M43,37H130V38H43Z M42,38H95V39H42Z M97,38H131V39H97Z M42,39H90V40H42Z M92,39H93V40H92Z M96,39H132V40H96Z M41,40H88V41H41Z M91,40H92V41H91Z M96,40H133V41H96Z M40,41H86V42H40Z M89,41H91V42H89Z M96,41H133V42H96Z M39,42H84V43H39Z M88,42H89V43H88Z M96,42H134V43H96Z M38,43H81V44H38Z M82,43H83V44H82Z M87,43H88V44H87Z M96,43H135V44H96Z M37,44H79V45H37Z M86,44H87V45H86Z M96,44H136V45H96Z M37,45H78V46H37Z M80,45H81V46H80Z M84,45H85V46H84Z M96,45H137V46H96Z M36,46H76V47H36Z M78,46H80V47H78Z M81,46H82V47H81Z M83,46H84V47H83Z M96,46H137V47H96Z M35,47H77V48H35Z M82,47H83V48H82Z M96,47H138V48H96Z M35,48H71V49H35Z M73,48H74V49H73Z M76,48H77V49H76Z M79,48H80V49H79Z M81,48H82V49H81Z M96,48H138V49H96Z M34,49H69V50H34Z M71,49H74V50H71Z M75,49H77V50H75Z M78,49H79V50H78Z M80,49H82V50H80Z M97,49H139V50H97Z M35,50H68V51H35Z M71,50H74V51H71Z M77,50H78V51H77Z M79,50H80V51H79Z M97,50H140V51H97Z M33,51H66V52H33Z M68,51H72V52H68Z M73,51H75V52H73Z M102,51H103V52H102Z M104,51H113V52H104Z M114,51H140V52H114Z M33,52H63V53H33Z M66,52H69V53H66Z M71,52H73V53H71Z M74,52H75V53H74Z M97,52H98V53H97Z M102,52H103V53H102Z M104,52H109V53H104Z M114,52H141V53H114Z M32,53H62V54H32Z M64,53H71V54H64Z M72,53H73V54H72Z M77,53H78V54H77Z M97,53H98V54H97Z M102,53H103V54H102Z M104,53H108V54H104Z M112,53H141V54H112Z M32,54H61V55H32Z M63,54H66V55H63Z M68,54H71V55H68Z M73,54H74V55H73Z M76,54H77V55H76Z M106,54H142V55H106Z M31,55H58V56H31Z M60,55H63V56H60Z M65,55H68V56H65Z M98,55H99V56H98Z M103,55H104V56H103Z M106,55H142V56H106Z M31,56H69V57H31Z M98,56H99V57H98Z M105,56H109V57H105Z M110,56H143V57H110Z M30,57H55V58H30Z M56,57H68V58H56Z M74,57H75V58H74Z M99,57H100V58H99Z M108,57H143V58H108Z M31,58H55V59H31Z M64,58H68V59H64Z M70,58H71V59H70Z M73,58H74V59H73Z M105,58H107V59H105Z M108,58H143V59H108Z M30,59H53V60H30Z M55,59H56V60H55Z M64,59H68V60H64Z M69,59H70V60H69Z M72,59H73V60H72Z M100,59H101V60H100Z M105,59H107V60H105Z M108,59H144V60H108Z M29,60H52V61H29Z M64,60H65V61H64Z M66,60H69V61H66Z M72,60H73V61H72Z M101,60H102V61H101Z M104,60H105V61H104Z M106,60H144V61H106Z M29,61H50V62H29Z M64,61H66V62H64Z M67,61H69V62H67Z M71,61H72V62H71Z M102,61H103V62H102Z M106,61H144V62H106Z M29,62H48V63H29Z M50,62H52V63H50Z M55,62H56V63H55Z M64,62H66V63H64Z M67,62H69V63H67Z M70,62H72V63H70Z M103,62H104V63H103Z M105,62H145V63H105Z M28,63H47V64H28Z M53,63H54V64H53Z M65,63H68V64H65Z M70,63H71V64H70Z M104,63H144V64H104Z M28,64H46V65H28Z M47,64H48V65H47Z M63,64H66V65H63Z M67,64H68V65H67Z M106,64H145V65H106Z M28,65H48V66H28Z M63,65H67V66H63Z M69,65H70V66H69Z M108,65H146V66H108Z M27,66H44V67H27Z M46,66H48V67H46Z M63,66H65V67H63Z M66,66H67V67H66Z M68,66H69V67H68Z M110,66H146V67H110Z M27,67H44V68H27Z M47,67H48V68H47Z M64,67H65V68H64Z M68,67H69V68H68Z M90,67H99V68H90Z M111,67H146V68H111Z M27,68H42V69H27Z M43,68H46V69H43Z M47,68H48V69H47Z M65,68H66V69H65Z M67,68H68V69H67Z M90,68H91V69H90Z M98,68H99V69H98Z M113,68H146V69H113Z M27,69H42V70H27Z M43,69H48V70H43Z M65,69H66V70H65Z M67,69H68V70H67Z M92,69H93V70H92Z M97,69H98V70H97Z M115,69H147V70H115Z M27,70H40V71H27Z M41,70H43V71H41Z M46,70H47V71H46Z M94,70H95V71H94Z M96,70H97V71H96Z M116,70H147V71H116Z M27,71H39V72H27Z M40,71H41V72H40Z M43,71H44V72H43Z M47,71H48V72H47Z M66,71H67V72H66Z M118,71H147V72H118Z M26,72H42V73H26Z M58,72H59V73H58Z M60,72H62V73H60Z M120,72H147V73H120Z M26,73H42V74H26Z M56,73H57V74H56Z M58,73H59V74H58Z M61,73H62V74H61Z M65,73H66V74H65Z M122,73H147V74H122Z M26,74H39V75H26Z M56,74H57V75H56Z M59,74H60V75H59Z M62,74H63V75H62Z M124,74H147V75H124Z M26,75H36V76H26Z M37,75H40V76H37Z M57,75H58V76H57Z M59,75H60V76H59Z M62,75H63V76H62Z M64,75H65V76H64Z M126,75H147V76H126Z M26,76H36V77H26Z M37,76H39V77H37Z M57,76H58V77H57Z M61,76H62V77H61Z M64,76H65V77H64Z M128,76H147V77H128Z M26,77H35V78H26Z M36,77H38V78H36Z M58,77H59V78H58Z M61,77H62V78H61Z M130,77H147V78H130Z M26,78H34V79H26Z M36,78H37V79H36Z M56,78H57V79H56Z M58,78H59V79H58Z M60,78H61V79H60Z M63,78H64V79H63Z M133,78H147V79H133Z M26,79H34V80H26Z M35,79H37V80H35Z M39,79H40V80H39Z M56,79H57V80H56Z M58,79H59V80H58Z M60,79H61V80H60Z M63,79H64V80H63Z M136,79H147V80H136Z M26,80H32V81H26Z M55,80H61V81H55Z M138,80H147V81H138Z M26,81H32V82H26Z M55,81H59V82H55Z M60,81H61V82H60Z M62,81H63V82H62Z M137,81H138V82H137Z M143,81H147V82H143Z M26,82H31V83H26Z M48,82H49V83H48Z M55,82H59V83H55Z M60,82H61V83H60Z M62,82H63V83H62Z M143,82H147V83H143Z M26,83H31V84H26Z M48,83H49V84H48Z M56,83H59V84H56Z M143,83H147V84H143Z M26,84H31V85H26Z M48,84H49V85H48Z M57,84H59V85H57Z M143,84H147V85H143Z M26,85H30V86H26Z M31,85H32V86H31Z M48,85H49V86H48Z M61,85H62V86H61Z M75,85H77V86H75Z M80,85H81V86H80Z M140,85H141V86H140Z M143,85H147V86H143Z M26,86H30V87H26Z M31,86H32V87H31Z M48,86H49V87H48Z M56,86H57V87H56Z M72,86H79V87H72Z M83,86H88V87H83Z M139,86H140V87H139Z M143,86H147V87H143Z M26,87H30V88H26Z M31,87H32V88H31Z M48,87H49V88H48Z M56,87H57V88H56Z M68,87H72V88H68Z M90,87H94V88H90Z M137,87H139V88H137Z M143,87H147V88H143Z M27,88H32V89H27Z M57,88H58V89H57Z M60,88H61V89H60Z M64,88H65V89H64Z M67,88H68V89H67Z M94,88H99V89H94Z M136,88H138V89H136Z M143,88H147V89H143Z M27,89H28V90H27Z M30,89H32V90H30Z M56,89H57V90H56Z M60,89H61V90H60Z M63,89H65V90H63Z M98,89H101V90H98Z M129,89H130V90H129Z M135,89H136V90H135Z M142,89H147V90H142Z M30,90H31V91H30Z M55,90H59V91H55Z M60,90H61V91H60Z M101,90H103V91H101Z M133,90H134V91H133Z M141,90H147V91H141Z M30,91H31V92H30Z M54,91H57V92H54Z M58,91H59V92H58Z M104,91H107V92H104Z M131,91H133V92H131Z M141,91H146V92H141Z M54,92H58V93H54Z M106,92H112V93H106Z M128,92H132V93H128Z M140,92H146V93H140Z M27,93H28V94H27Z M31,93H32V94H31Z M54,93H56V94H54Z M58,93H60V94H58Z M110,93H114V94H110Z M125,93H128V94H125Z M139,93H146V94H139Z M54,94H58V95H54Z M66,94H69V95H66Z M115,94H118V95H115Z M122,94H125V95H122Z M138,94H146V95H138Z M30,95H31V96H30Z M32,95H34V96H32Z M39,95H43V96H39Z M53,95H60V96H53Z M72,95H73V96H72Z M136,95H145V96H136Z M31,96H36V97H31Z M38,96H44V97H38Z M49,96H50V97H49Z M52,96H58V97H52Z M74,96H75V97H74Z M135,96H144V97H135Z M28,97H29V98H28Z M30,97H35V98H30Z M38,97H44V98H38Z M52,97H56V98H52Z M58,97H60V98H58Z M68,97H70V98H68Z M72,97H73V98H72Z M76,97H77V98H76Z M134,97H145V98H134Z M31,98H35V99H31Z M40,98H44V99H40Z M52,98H63V99H52Z M78,98H79V99H78Z M133,98H145V99H133Z M32,99H34V100H32Z M41,99H45V100H41Z M52,99H64V100H52Z M68,99H71V100H68Z M80,99H81V100H80Z M131,99H144V100H131Z M29,100H30V101H29Z M43,100H50V101H43Z M52,100H62V101H52Z M63,100H71V101H63Z M72,100H73V101H72Z M81,100H82V101H81Z M130,100H144V101H130Z M43,101H57V102H43Z M128,101H143V102H128Z M43,102H54V103H43Z M65,102H69V103H65Z M126,102H127V103H126Z M128,102H143V103H128Z M30,103H31V104H30Z M35,103H40V104H35Z M44,103H52V104H44Z M59,103H61V104H59Z M124,103H143V104H124Z M35,104H36V105H35Z M37,104H40V105H37Z M42,104H43V105H42Z M45,104H49V105H45Z M55,104H56V105H55Z M122,104H142V105H122Z M31,105H32V106H31Z M36,105H40V106H36Z M52,105H53V106H52Z M119,105H142V106H119Z M36,106H40V107H36Z M43,106H44V107H43Z M49,106H50V107H49Z M116,106H141V107H116Z M32,107H33V108H32Z M35,107H40V108H35Z M46,107H47V108H46Z M112,107H141V108H112Z M36,108H40V109H36Z M109,108H140V109H109Z M33,109H34V110H33Z M36,109H38V110H36Z M39,109H40V110H39Z M106,109H107V110H106Z M108,109H140V110H108Z M38,110H39V111H38Z M41,110H42V111H41Z M105,110H106V111H105Z M107,110H139V111H107Z"/>
  <path fill="#0D47A1" d="M69,22H70V23H69Z M103,22H105V23H103Z M59,26H60V27H59Z M113,26H114V27H113Z M115,27H116V28H115Z M90,39H92V40H90Z M88,40H91V41H88Z M86,41H89V42H86Z M84,42H88V43H84Z M81,43H82V44H81Z M83,43H87V44H83Z M79,44H86V45H79Z M78,45H80V46H78Z M81,45H84V46H81Z M76,46H78V47H76Z M80,46H81V47H80Z M82,46H83V47H82Z M77,47H82V48H77Z M71,48H73V49H71Z M74,48H76V49H74Z M77,48H79V49H77Z M80,48H81V49H80Z M69,49H71V50H69Z M74,49H75V50H74Z M77,49H78V50H77Z M79,49H80V50H79Z M34,50H35V51H34Z M68,50H71V51H68Z M74,50H77V51H74Z M78,50H79V51H78Z M66,51H68V52H66Z M72,51H73V52H72Z M75,51H79V52H75Z M97,51H102V52H97Z M103,51H104V52H103Z M113,51H114V52H113Z M63,52H66V53H63Z M69,52H71V53H69Z M73,52H74V53H73Z M75,52H78V53H75Z M98,52H102V53H98Z M103,52H104V53H103Z M109,52H114V53H109Z M62,53H64V54H62Z M71,53H72V54H71Z M73,53H77V54H73Z M98,53H102V54H98Z M103,53H104V54H103Z M108,53H112V54H108Z M61,54H63V55H61Z M66,54H68V55H66Z M71,54H73V55H71Z M74,54H76V55H74Z M98,54H106V55H98Z M58,55H60V56H58Z M63,55H65V56H63Z M68,55H76V56H68Z M99,55H103V56H99Z M104,55H106V56H104Z M69,56H75V57H69Z M99,56H105V57H99Z M109,56H110V57H109Z M55,57H56V58H55Z M68,57H74V58H68Z M100,57H108V58H100Z M30,58H31V59H30Z M55,58H64V59H55Z M68,58H70V59H68Z M71,58H73V59H71Z M100,58H105V59H100Z M107,58H108V59H107Z M53,59H55V60H53Z M56,59H64V60H56Z M68,59H69V60H68Z M70,59H72V60H70Z M101,59H105V60H101Z M107,59H108V60H107Z M52,60H64V61H52Z M65,60H66V61H65Z M69,60H72V61H69Z M102,60H104V61H102Z M105,60H106V61H105Z M50,61H64V62H50Z M66,61H67V62H66Z M69,61H71V62H69Z M103,61H106V62H103Z M48,62H50V63H48Z M52,62H55V63H52Z M56,62H64V63H56Z M66,62H67V63H66Z M69,62H70V63H69Z M104,62H105V63H104Z M47,63H53V64H47Z M54,63H65V64H54Z M68,63H70V64H68Z M144,63H145V64H144Z M46,64H47V65H46Z M48,64H63V65H48Z M66,64H67V65H66Z M68,64H70V65H68Z M48,65H63V66H48Z M67,65H69V66H67Z M44,66H46V67H44Z M48,66H63V67H48Z M65,66H66V67H65Z M67,66H68V67H67Z M44,67H47V68H44Z M48,67H64V68H48Z M65,67H68V68H65Z M42,68H43V69H42Z M46,68H47V69H46Z M48,68H65V69H48Z M66,68H67V69H66Z M91,68H98V69H91Z M42,69H43V70H42Z M48,69H65V70H48Z M66,69H67V70H66Z M93,69H97V70H93Z M40,70H41V71H40Z M43,70H46V71H43Z M47,70H67V71H47Z M95,70H96V71H95Z M39,71H40V72H39Z M41,71H43V72H41Z M44,71H47V72H44Z M48,71H66V72H48Z M42,72H58V73H42Z M59,72H60V73H59Z M62,72H66V73H62Z M42,73H56V74H42Z M57,73H58V74H57Z M59,73H61V74H59Z M62,73H65V74H62Z M39,74H56V75H39Z M57,74H59V75H57Z M60,74H62V75H60Z M63,74H65V75H63Z M36,75H37V76H36Z M40,75H57V76H40Z M58,75H59V76H58Z M60,75H62V76H60Z M63,75H64V76H63Z M36,76H37V77H36Z M39,76H57V77H39Z M58,76H61V77H58Z M62,76H64V77H62Z M35,77H36V78H35Z M38,77H58V78H38Z M59,77H61V78H59Z M62,77H64V78H62Z M34,78H36V79H34Z M37,78H56V79H37Z M57,78H58V79H57Z M59,78H60V79H59Z M61,78H63V79H61Z M34,79H35V80H34Z M37,79H39V80H37Z M40,79H56V80H40Z M57,79H58V80H57Z M59,79H60V80H59Z M61,79H63V80H61Z M32,80H55V81H32Z M61,80H63V81H61Z M32,81H55V82H32Z M59,81H60V82H59Z M61,81H62V82H61Z M31,82H48V83H31Z M49,82H55V83H49Z M59,82H60V83H59Z M61,82H62V83H61Z M31,83H48V84H31Z M49,83H56V84H49Z M59,83H62V84H59Z M31,84H48V85H31Z M49,84H57V85H49Z M59,84H62V85H59Z M30,85H31V86H30Z M32,85H48V86H32Z M49,85H61V86H49Z M30,86H31V87H30Z M32,86H48V87H32Z M49,86H56V87H49Z M57,86H61V87H57Z M30,87H31V88H30Z M32,87H48V88H32Z M49,87H56V88H49Z M57,87H61V88H57Z M32,88H57V89H32Z M58,88H60V89H58Z M28,89H30V90H28Z M32,89H56V90H32Z M57,89H60V90H57Z M27,90H30V91H27Z M31,90H55V91H31Z M59,90H60V91H59Z M27,91H30V92H27Z M31,91H54V92H31Z M57,91H58V92H57Z M59,91H60V92H59Z M27,92H54V93H27Z M58,92H60V93H58Z M28,93H31V94H28Z M32,93H54V94H32Z M56,93H58V94H56Z M28,94H54V95H28Z M58,94H66V95H58Z M28,95H30V96H28Z M31,95H32V96H31Z M34,95H39V96H34Z M43,95H53V96H43Z M60,95H72V96H60Z M28,96H31V97H28Z M36,96H38V97H36Z M44,96H49V97H44Z M50,96H52V97H50Z M58,96H74V97H58Z M144,96H145V97H144Z M29,97H30V98H29Z M35,97H38V98H35Z M44,97H52V98H44Z M56,97H58V98H56Z M60,97H68V98H60Z M70,97H72V98H70Z M73,97H76V98H73Z M29,98H31V99H29Z M35,98H40V99H35Z M44,98H52V99H44Z M63,98H78V99H63Z M29,99H32V100H29Z M34,99H41V100H34Z M45,99H52V100H45Z M64,99H68V100H64Z M71,99H80V100H71Z M30,100H43V101H30Z M50,100H52V101H50Z M62,100H63V101H62Z M71,100H72V101H71Z M73,100H81V101H73Z M30,101H43V102H30Z M57,101H82V102H57Z M30,102H43V103H30Z M54,102H65V103H54Z M127,102H128V103H127Z M31,103H35V104H31Z M40,103H44V104H40Z M52,103H59V104H52Z M31,104H35V105H31Z M36,104H37V105H36Z M40,104H42V105H40Z M43,104H45V105H43Z M49,104H55V105H49Z M32,105H36V106H32Z M40,105H52V106H40Z M32,106H36V107H32Z M40,106H43V107H40Z M44,106H49V107H44Z M33,107H35V108H33Z M40,107H46V108H40Z M33,108H36V109H33Z M40,108H45V109H40Z M34,109H36V110H34Z M38,109H39V110H38Z M40,109H43V110H40Z M107,109H108V110H107Z M34,110H38V111H34Z M39,110H41V111H39Z M106,110H107V111H106Z"/>
  <path fill="#64B5F6" d="M81,19H83V20H81Z M90,19H93V20H90Z M74,20H75V21H74Z M99,20H100V21H99Z M70,21H71V22H70Z M103,21H104V22H103Z M66,22H68V23H66Z M64,23H65V24H64Z M61,24H62V25H61Z M111,24H112V25H111Z M59,25H60V26H59Z M113,25H114V26H113Z M115,26H116V27H115Z M54,28H55V29H54Z M52,29H53V30H52Z M120,29H121V30H120Z M48,32H49V33H48Z M124,32H125V33H124Z M47,33H48V34H47Z M125,33H126V34H125Z M95,38H97V39H95Z M41,39H42V40H41Z M93,39H96V40H93Z M40,40H41V41H40Z M92,40H96V41H92Z M91,41H96V42H91Z M133,41H134V42H133Z M89,42H96V43H89Z M134,42H135V43H134Z M88,43H96V44H88Z M87,44H96V45H87Z M36,45H37V46H36Z M85,45H96V46H85Z M84,46H96V47H84Z M137,46H138V47H137Z M83,47H96V48H83Z M34,48H35V49H34Z M82,48H96V49H82Z M138,48H139V49H138Z M82,49H97V50H82Z M139,49H140V50H139Z M33,50H34V51H33Z M80,50H97V51H80Z M79,51H97V52H79Z M32,52H33V53H32Z M78,52H97V53H78Z M78,53H97V54H78Z M141,53H142V54H141Z M31,54H32V55H31Z M77,54H98V55H77Z M76,55H98V56H76Z M142,55H143V56H142Z M75,56H98V57H75Z M75,57H99V58H75Z M74,58H100V59H74Z M143,58H144V59H143Z M29,59H30V60H29Z M73,59H100V60H73Z M73,60H101V61H73Z M28,61H29V62H28Z M72,61H102V62H72Z M28,62H29V63H28Z M72,62H103V63H72Z M71,63H104V64H71Z M70,64H106V65H70Z M145,64H146V65H145Z M27,65H28V66H27Z M70,65H108V66H70Z M69,66H110V67H69Z M69,67H90V68H69Z M99,67H111V68H99Z M68,68H90V69H68Z M99,68H113V69H99Z M146,68H147V69H146Z M68,69H92V70H68Z M98,69H115V70H98Z M26,70H27V71H26Z M67,70H94V71H67Z M97,70H116V71H97Z M26,71H27V72H26Z M67,71H118V72H67Z M66,72H120V73H66Z M66,73H122V74H66Z M65,74H124V75H65Z M65,75H126V76H65Z M65,76H128V77H65Z M64,77H130V78H64Z M147,77H148V78H147Z M64,78H133V79H64Z M147,78H148V79H147Z M64,79H136V80H64Z M147,79H148V80H147Z M63,80H138V81H63Z M147,80H148V81H147Z M63,81H137V82H63Z M138,81H143V82H138Z M63,82H143V83H63Z M62,83H143V84H62Z M62,84H142V85H62Z M62,85H75V86H62Z M77,85H80V86H77Z M81,85H140V86H81Z M61,86H72V87H61Z M81,86H83V87H81Z M88,86H139V87H88Z M61,87H68V88H61Z M89,87H90V88H89Z M94,87H137V88H94Z M26,88H27V89H26Z M61,88H64V89H61Z M65,88H67V89H65Z M68,88H69V89H68Z M99,88H136V89H99Z M142,88H143V89H142Z M26,89H27V90H26Z M61,89H63V90H61Z M101,89H129V90H101Z M130,89H135V90H130Z M61,90H64V91H61Z M103,90H133V91H103Z M134,90H135V91H134Z M60,91H63V92H60Z M103,91H104V92H103Z M107,91H131V92H107Z M133,91H134V92H133Z M140,91H141V92H140Z M146,91H147V92H146Z M60,92H61V93H60Z M112,92H128V93H112Z M139,92H140V93H139Z M60,93H64V94H60Z M114,93H125V94H114Z M128,93H130V94H128Z M138,93H139V94H138Z M27,94H28V95H27Z M69,94H70V95H69Z M113,94H115V95H113Z M118,94H122V95H118Z M125,94H128V95H125Z M137,94H138V95H137Z M118,95H122V96H118Z M145,95H146V96H145Z M75,96H76V97H75Z M77,97H78V98H77Z M133,97H134V98H133Z M28,98H29V99H28Z M132,98H133V99H132Z M129,100H130V101H129Z M29,101H30V102H29Z M143,101H144V102H143Z M125,102H126V103H125Z M123,103H124V104H123Z M121,104H122V105H121Z M142,104H143V105H142Z M118,105H119V106H118Z M115,106H116V107H115Z M141,106H142V107H141Z M47,107H48V108H47Z M111,107H112V108H111Z M108,108H109V109H108Z M140,108H141V109H140Z M104,110H105V111H104Z M139,110H140V111H139Z"/>
</svg>
